<svg width="26" height="25" viewBox="0 0 26 25" fill="none" xmlns="http://www.w3.org/2000/svg">
<path d="M19.2445 22.37C18.9216 22.37 18.5987 22.29 18.307 22.12L14.13 19.74C13.6925 19.73 13.255 19.7 12.8383 19.64C12.557 19.6 12.3175 19.42 12.2133 19.16C12.1091 18.9 12.1612 18.62 12.3487 18.41C13.0362 17.64 13.3904 16.72 13.3904 15.74C13.3904 13.32 11.1716 11.35 8.44246 11.35C7.42163 11.35 6.44246 11.62 5.61954 12.14C5.39037 12.28 5.10913 12.3 4.85913 12.19C4.61954 12.08 4.44247 11.86 4.41122 11.6C4.37997 11.32 4.35913 11.04 4.35913 10.75C4.35913 5.79002 8.8383 1.76003 14.3383 1.76003C19.8383 1.76003 24.3175 5.79002 24.3175 10.75C24.3175 13.47 23.005 15.97 20.6925 17.68L21.0466 20.4C21.13 21.08 20.8175 21.72 20.2237 22.09C19.932 22.27 19.5883 22.37 19.2445 22.37ZM14.3279 18.23C14.4737 18.22 14.6195 18.26 14.7445 18.34L19.1091 20.83C19.2237 20.9 19.3175 20.87 19.38 20.83C19.432 20.8 19.5154 20.72 19.4945 20.58L19.0883 17.42C19.057 17.14 19.182 16.87 19.4112 16.71C21.5362 15.28 22.755 13.1 22.755 10.73C22.755 6.6 18.9841 3.24001 14.3383 3.24001C9.86955 3.24001 6.20288 6.36004 5.93204 10.28C6.71329 9.99004 7.55705 9.83003 8.43205 9.83003C12.0258 9.83003 14.9425 12.47 14.9425 15.72C14.9529 16.6 14.7341 17.45 14.3279 18.23Z" fill="#120A16"/>
<path d="M5.40048 23.2501C5.12965 23.2501 4.86922 23.1801 4.62964 23.0301C4.16089 22.7401 3.9109 22.2401 3.9734 21.7101L4.18173 20.1701C2.77548 19.0701 1.94214 17.4401 1.94214 15.7301C1.94214 13.7801 3.00465 11.9601 4.7859 10.8701C5.85882 10.2001 7.12964 9.8401 8.45256 9.8401C12.0463 9.8401 14.963 12.4801 14.963 15.7301C14.963 17.0501 14.463 18.3501 13.5463 19.3801C12.3692 20.7501 10.6088 21.5501 8.67131 21.6101L6.12964 23.0601C5.90048 23.1901 5.65048 23.2501 5.40048 23.2501ZM8.44214 11.3401C7.42131 11.3401 6.44214 11.6101 5.61922 12.1301C4.28589 12.9501 3.49423 14.2901 3.49423 15.7301C3.49423 17.1201 4.20257 18.3901 5.45257 19.2101C5.69215 19.3701 5.81714 19.6401 5.78589 19.9201L5.55672 21.6301L8.04631 20.2101C8.17131 20.1401 8.30673 20.1001 8.44214 20.1001C9.97339 20.1001 11.4213 19.4701 12.338 18.4001C13.0255 17.6201 13.3901 16.7 13.3901 15.72C13.3901 13.31 11.1713 11.3401 8.44214 11.3401Z" fill="#120A16"/>
</svg>
