<svg width="25" height="25" viewBox="0 0 25 25" fill="none" xmlns="http://www.w3.org/2000/svg">
<path d="M21.8856 10.3348L21.8856 10.3348C22.2002 11.1004 22.3599 11.9124 22.3599 12.7468C22.3599 13.6034 22.1922 14.4345 21.8609 15.2174C21.702 15.5933 21.5052 15.9559 21.2757 16.2954L21.1514 16.2115L21.2757 16.2955C21.0487 16.6313 20.7882 16.9474 20.501 17.2346L20.501 17.2347C20.2135 17.5217 19.8978 17.7821 19.5619 18.0092C19.2223 18.2387 18.8598 18.4355 18.4834 18.5944C17.7007 18.9255 16.8693 19.0933 16.013 19.0933C15.4176 19.0933 14.8176 19.004 14.23 18.8283C13.6691 18.6608 13.1298 18.4182 12.6264 18.107L12.6263 18.107C12.4174 17.9775 12.3527 17.703 12.4815 17.494L12.4818 17.4935C12.5635 17.362 12.7059 17.2829 12.8609 17.2829C12.9431 17.2829 13.0241 17.3055 13.095 17.3495M21.8856 10.3348L13.016 17.477M21.8856 10.3348C21.5815 9.5956 21.145 8.92688 20.5882 8.34832C20.3143 8.06311 20.0119 7.80267 19.6902 7.57327L19.6901 7.57317C19.3658 7.34252 19.0183 7.14131 18.6572 6.97558L18.5946 7.1119L18.6572 6.97557C18.6182 6.95765 18.5791 6.94035 18.5401 6.92352L18.5399 6.84469C18.5383 6.1523 18.2532 5.48961 17.742 4.9777L17.7419 4.97754C17.2302 4.46673 16.5675 4.18161 15.8751 4.18001L15.875 4.18001C15.4671 4.17916 14.8522 4.18 14.1402 4.18097L14.116 4.181L14.116 4.181C13.7186 4.18159 13.2989 4.18218 12.8842 4.18253C12.1141 4.18316 11.3894 4.48368 10.8448 5.02821L10.9508 5.13429L10.8447 5.02822L2.79741 13.0751C1.60077 14.2716 1.60077 16.2183 2.79741 17.4148L5.30425 19.9215C5.88368 20.5009 6.65484 20.8203 7.47428 20.8203C8.29372 20.8203 9.06487 20.5009 9.6443 19.9215L17.6916 11.8748L17.5855 11.7687L17.6916 11.8748C18.2362 11.3302 18.5367 10.6054 18.5374 9.83539C18.5377 9.42071 18.5383 9.00105 18.5389 8.6037L18.5391 8.46895C18.5394 8.27218 18.5396 8.08362 18.5398 7.90552M21.8856 10.3348L18.5398 7.90552M13.095 17.3495C13.0951 17.3495 13.0951 17.3495 13.0951 17.3495L13.016 17.477M13.095 17.3495C13.095 17.3495 13.095 17.3494 13.0949 17.3494L13.016 17.477M13.095 17.3495C13.985 17.9002 15.0218 18.2027 16.0111 18.2027H16.0131C17.4704 18.2027 18.84 17.6354 19.8712 16.6046M13.016 17.477C13.9284 18.0416 14.9924 18.3527 16.0111 18.3527H16.0131C17.5102 18.3527 18.9179 17.7696 19.9772 16.7107L19.8712 16.6047C19.8712 16.6047 19.8712 16.6047 19.8712 16.6046M19.8712 16.6046C20.9018 15.574 21.4689 14.2042 21.4693 12.7468C21.4695 10.6424 20.2886 8.81557 18.5398 7.90552M19.8712 16.6046L18.5398 7.90552M15.801 6.56773C15.678 6.60021 15.5869 6.71256 15.5869 6.8456C15.5869 6.97475 15.6728 7.08442 15.7904 7.12041C15.7333 7.04553 15.6993 6.95208 15.6993 6.85084L15.801 6.56773ZM15.801 6.56773C15.7375 6.64467 15.6993 6.74328 15.6993 6.85081L15.801 6.56773ZM17.0618 11.2449L17.0618 11.2449L9.01452 19.2917C8.16535 20.1408 6.78324 20.1408 5.93407 19.2917L3.42722 16.785C3.01561 16.3734 2.78922 15.8269 2.78922 15.2449C2.78922 14.6629 3.01558 14.1164 3.42718 13.7048L11.4745 5.65809C11.8515 5.28113 12.3519 5.0736 12.8849 5.0732C13.2999 5.07284 13.7198 5.07225 14.1173 5.07166C14.6269 5.07091 15.0872 5.07029 15.4585 5.07029C15.6132 5.07029 15.7523 5.0704 15.8731 5.07068C16.3237 5.07169 16.7642 5.26005 17.1122 5.60746C17.3982 5.89385 17.576 6.24277 17.6307 6.60836C17.4207 6.55306 17.2078 6.50857 16.9923 6.47522C16.8368 6.00678 16.3949 5.66764 15.8743 5.66764C15.2246 5.66764 14.6963 6.19595 14.6963 6.8456C14.6963 7.49526 15.2246 8.02353 15.8743 8.02353C16.3371 8.02353 16.7377 7.75559 16.9303 7.36737C17.1763 7.40862 17.4164 7.46619 17.6496 7.53883C17.6494 7.83812 17.6489 8.1794 17.6483 8.5478L17.6482 8.60237C17.6477 8.99987 17.6471 9.41972 17.6467 9.83467C17.6463 10.3676 17.4388 10.868 17.0618 11.2449Z" fill="#120A16" stroke="#120A16" stroke-width="0.3"/>
<path d="M7.13365 15.4571C6.67308 14.9917 5.92373 14.9918 5.4632 15.4571C5.00271 15.9224 5.00263 16.6797 5.46316 17.1451C5.92377 17.6104 6.67312 17.6104 7.13365 17.1451C7.59418 16.6797 7.59421 15.9225 7.13365 15.4571ZM6.71599 16.7231C6.48573 16.9558 6.11104 16.9558 5.88077 16.7231C5.65059 16.4904 5.65051 16.1118 5.88081 15.8791C6.11104 15.6465 6.48573 15.6465 6.71599 15.8791C6.94626 16.1118 6.94626 16.4904 6.71599 16.7231Z" fill="#120A16"/>
<path d="M8.84965 13.9849L8.09365 13.2212C7.97836 13.1047 7.79141 13.1047 7.67612 13.2212C7.56079 13.3377 7.56079 13.5266 7.67608 13.6431L8.432 14.4069C8.59088 14.5675 8.58899 14.8306 8.42783 14.9935C8.26667 15.1563 8.00624 15.1583 7.84736 14.9977L7.09148 14.2338C6.97619 14.1173 6.78916 14.1174 6.67387 14.2339C6.55858 14.3504 6.55858 14.5393 6.67387 14.6558L7.42975 15.4197C7.81897 15.8129 8.45397 15.8111 8.84548 15.4155C9.23695 15.0199 9.23884 14.3783 8.84965 13.9849Z" fill="#120A16"/>
<path d="M10.3585 13.4645L9.3145 12.4095L9.57898 12.1422C9.69431 12.0257 9.69435 11.8368 9.57895 11.7202C9.46366 11.6037 9.2767 11.6037 9.16137 11.7203L8.2148 12.6767C8.09947 12.7933 8.09947 12.9822 8.21476 13.0987C8.33017 13.2153 8.51708 13.2153 8.63241 13.0987L8.89689 12.8314L9.94088 13.8864C10.0562 14.003 10.2432 14.003 10.3585 13.8864C10.4738 13.7699 10.4738 13.581 10.3585 13.4645Z" fill="#120A16"/>
<path d="M12.0124 11.7932C11.897 11.6767 11.7101 11.6767 11.5947 11.7932L11.1632 12.2293L10.1191 11.1743C10.0039 11.0578 9.8169 11.0578 9.70161 11.1743C9.58628 11.2908 9.58629 11.4797 9.70158 11.5962L10.9544 12.8622C11.0698 12.9788 11.2567 12.9787 11.372 12.8622L12.0124 12.2152C12.1277 12.0986 12.1277 11.9097 12.0124 11.7932Z" fill="#120A16"/>
<path d="M13.2169 10.5762C13.1016 10.4595 12.9146 10.4595 12.7994 10.5761L12.3678 11.0121L12.159 10.8012L12.4235 10.5339C12.5389 10.4174 12.5388 10.2285 12.4234 10.1119C12.3081 9.99534 12.1212 9.99538 12.0059 10.1119L11.7414 10.3792L11.5326 10.1682L11.9641 9.73213C12.0795 9.61554 12.0795 9.4267 11.9641 9.31015C11.8488 9.19364 11.6619 9.19356 11.5465 9.31015L10.9062 9.95722C10.7909 10.0737 10.7909 10.2626 10.9062 10.3792L12.159 11.6451C12.2744 11.7617 12.4614 11.7617 12.5767 11.6451L13.217 10.9981C13.3323 10.8815 13.3323 10.6927 13.2169 10.5762Z" fill="#120A16"/>
<path d="M14.2263 9.55621L13.1823 8.50129L13.4468 8.23398C13.5621 8.11743 13.5621 7.92859 13.4467 7.81196C13.3314 7.69546 13.1445 7.69545 13.0292 7.812L12.0826 8.76848C11.9673 8.88506 11.9673 9.07399 12.0826 9.19046C12.198 9.30704 12.3849 9.30704 12.5002 9.19046L12.7647 8.92318L13.8087 9.97818C13.9241 10.0948 14.111 10.0947 14.2263 9.97818C14.3416 9.86168 14.3417 9.67275 14.2263 9.55621Z" fill="#120A16"/>
</svg>
