<svg width="26" height="25" viewBox="0 0 26 25" fill="none" xmlns="http://www.w3.org/2000/svg">
<path d="M17.2965 23.25H8.96318C5.81734 23.25 4.01526 21.52 4.01526 18.5V8.75C4.01526 5.6 5.68193 4 8.96318 4C9.39026 4 9.74443 4.34 9.74443 4.75C9.74443 5.15 9.9111 5.53 10.2028 5.81C10.4944 6.09 10.8903 6.25 11.3069 6.25H14.9528C15.8173 6.25 16.5153 5.58 16.5153 4.75C16.5153 4.34 16.8694 4 17.2965 4C20.5778 4 22.2444 5.6 22.2444 8.75V18.5C22.2444 21.52 20.4423 23.25 17.2965 23.25ZM8.28607 5.52C6.64023 5.65 5.57776 6.36 5.57776 8.75V18.5C5.57776 20.72 6.65068 21.75 8.96318 21.75H17.2965C19.609 21.75 20.6819 20.72 20.6819 18.5V8.75C20.6819 6.36 19.6195 5.66 17.9736 5.52C17.6195 6.8 16.4007 7.75 14.9528 7.75H11.3069C10.4736 7.75 9.69235 7.44 9.0986 6.87C8.70276 6.49 8.4319 6.03 8.28607 5.52Z" fill="#120A16"/>
<path d="M14.9528 7.75H11.307C10.4737 7.75 9.69243 7.44 9.09868 6.87C8.50493 6.29999 8.18201 5.55 8.18201 4.75C8.18201 3.1 9.58826 1.75 11.307 1.75H14.9528C15.7862 1.75 16.5674 2.06 17.1612 2.63C17.7549 3.2 18.0778 3.95 18.0778 4.75C18.0778 6.4 16.6716 7.75 14.9528 7.75ZM11.307 3.25C10.4424 3.25 9.74451 3.92 9.74451 4.75C9.74451 5.15 9.91118 5.53 10.2028 5.81C10.4945 6.09 10.8903 6.25 11.307 6.25H14.9528C15.8174 6.25 16.5153 5.58 16.5153 4.75C16.5153 4.35 16.3487 3.97 16.057 3.69C15.7653 3.41 15.3695 3.25 14.9528 3.25H11.307Z" fill="#120A16"/>
<path d="M13.1299 14.25H8.96326C8.53617 14.25 8.18201 13.91 8.18201 13.5C8.18201 13.09 8.53617 12.75 8.96326 12.75H13.1299C13.557 12.75 13.9112 13.09 13.9112 13.5C13.9112 13.91 13.557 14.25 13.1299 14.25Z" fill="#120A16"/>
<path d="M17.2966 18.25H8.96326C8.53617 18.25 8.18201 17.91 8.18201 17.5C8.18201 17.09 8.53617 16.75 8.96326 16.75H17.2966C17.7237 16.75 18.0778 17.09 18.0778 17.5C18.0778 17.91 17.7237 18.25 17.2966 18.25Z" fill="#120A16"/>
</svg>
