<svg width="26" height="25" viewBox="0 0 26 25" fill="none" xmlns="http://www.w3.org/2000/svg">
<path d="M11.63 12.6917C11.5108 12.6917 11.3917 12.6642 11.2817 12.6L3.1875 7.91584C2.86667 7.72334 2.7475 7.30168 2.94 6.97168C3.1325 6.64168 3.55417 6.53168 3.88417 6.72418L11.63 11.2067L19.33 6.75168C19.66 6.55918 20.0817 6.67834 20.2742 6.99918C20.4667 7.32918 20.3475 7.75084 20.0267 7.94334L11.9875 12.6C11.8683 12.655 11.7492 12.6917 11.63 12.6917Z" fill="#120A16"/>
<path d="M11.6299 20.9967C11.254 20.9967 10.9424 20.685 10.9424 20.3092V11.995C10.9424 11.6192 11.254 11.3075 11.6299 11.3075C12.0057 11.3075 12.3174 11.6192 12.3174 11.995V20.3092C12.3174 20.685 12.0057 20.9967 11.6299 20.9967Z" fill="#120A16"/>
<path d="M11.6297 21.3542C10.8231 21.3542 10.0256 21.18 9.39306 20.8317L4.49806 18.1092C3.16889 17.3758 2.13306 15.6067 2.13306 14.085V8.90583C2.13306 7.38416 3.16889 5.62416 4.49806 4.88166L9.39306 2.16833C10.6489 1.47166 12.6106 1.47166 13.8664 2.16833L18.7614 4.89083C20.0906 5.62416 21.1264 7.39333 21.1264 8.915V14.0942C21.1264 15.6158 20.0906 17.3758 18.7614 18.1183L13.8664 20.8317C13.2339 21.18 12.4364 21.3542 11.6297 21.3542ZM11.6297 3.02083C11.0522 3.02083 10.4839 3.14 10.0622 3.36916L5.16722 6.09166C4.28722 6.5775 3.50806 7.8975 3.50806 8.90583V14.085C3.50806 15.0933 4.28722 16.4133 5.16722 16.9083L10.0622 19.6308C10.8964 20.0983 12.3631 20.0983 13.1972 19.6308L18.0922 16.9083C18.9722 16.4133 19.7514 15.1025 19.7514 14.085V8.90583C19.7514 7.8975 18.9722 6.5775 18.0922 6.0825L13.1972 3.35999C12.7756 3.13999 12.2072 3.02083 11.6297 3.02083Z" fill="#120A16"/>
</svg>
