<svg width="26" height="25" viewBox="0 0 26 25" fill="none" xmlns="http://www.w3.org/2000/svg">
<g clip-path="url(#clip0_164_2376)">
<path d="M12.3974 13.9063C12.3974 12.7432 11.4118 11.7969 10.2002 11.7969C8.98861 11.7969 8.00292 12.7432 8.00292 13.9063C8.00292 15.0694 8.98861 16.0156 10.2002 16.0156C11.4118 16.0156 12.3974 15.0694 12.3974 13.9063ZM9.46776 13.9063C9.46776 13.5186 9.79633 13.2031 10.2002 13.2031C10.604 13.2031 10.9326 13.5186 10.9326 13.9063C10.9326 14.294 10.604 14.6094 10.2002 14.6094C9.79633 14.6094 9.46776 14.294 9.46776 13.9063ZM19.2219 8.50731C17.7796 6.98884 16.5339 5.67747 16.5339 3.63912C16.5339 2.72384 16.684 1.82998 16.7481 1.49028C16.7765 1.41532 16.792 1.33437 16.792 1.25V1.20312C16.792 0.842793 16.5082 0.540778 16.1348 0.5037C16.0045 0.490762 15.8783 0.511528 15.7656 0.558965C14.2842 0.674699 11.2818 1.66053 11.2818 5.29455C11.2818 7.83175 10.7464 8.61334 10.5162 8.83164C10.3894 8.95187 10.26 9.00226 10.0885 9.0002C9.414 8.99223 9.28661 8.06514 9.28207 8.03022C9.2578 7.78909 9.10639 7.58162 8.88065 7.47344C8.65487 7.36525 8.38744 7.3809 8.17216 7.50719C5.40937 9.12779 3.6084 12.0396 3.6084 15.3125C3.6084 20.3309 7.76816 24.4999 13.1299 24.4999C18.38 24.4999 22.6513 20.3785 22.6513 15.3125C22.6513 12.1175 20.8294 10.1995 19.2219 8.50731ZM13.1299 23.0937C8.68744 23.0937 5.07324 19.6031 5.07324 15.3125C5.07324 12.899 6.21225 10.6813 8.16171 9.22154C8.49232 9.82979 9.08822 10.3949 10.0705 10.4064C10.6305 10.4133 11.1424 10.2145 11.5456 9.83218C12.3538 9.06582 12.7467 7.58158 12.7467 5.29464C12.7467 3.10165 14.1921 2.34776 15.1735 2.08868C15.1174 2.5324 15.069 3.07774 15.069 3.63912C15.069 6.22234 16.63 7.86564 18.1396 9.45484C19.7065 11.1044 21.1865 12.6624 21.1865 15.3125C21.1865 19.6031 17.5723 23.0937 13.1299 23.0937ZM16.0595 16.0156C14.848 16.0156 13.8623 16.9619 13.8623 18.125C13.8623 19.2881 14.848 20.2344 16.0595 20.2344C17.2711 20.2344 18.2568 19.2881 18.2568 18.125C18.2568 16.9619 17.2712 16.0156 16.0595 16.0156ZM16.0595 18.8281C15.6557 18.8281 15.3271 18.5127 15.3271 18.125C15.3271 17.7373 15.6557 17.4219 16.0595 17.4219C16.4634 17.4219 16.792 17.7373 16.792 18.125C16.792 18.5127 16.4635 18.8281 16.0595 18.8281ZM16.5171 11.951C16.2012 11.7083 15.7403 11.7576 15.4876 12.0608L9.62826 19.092C9.37557 19.3953 9.4268 19.8377 9.74266 20.0803C10.0571 20.3218 10.5183 20.275 10.7721 19.9705L16.6315 12.9392C16.8842 12.636 16.8329 12.1936 16.5171 11.951Z" fill="#120A16"/>
</g>
<defs>
<clipPath id="clip0_164_2376">
<rect width="25" height="24" fill="white" transform="translate(0.629883 0.5)"/>
</clipPath>
</defs>
</svg>
