<svg width="40" height="39" viewBox="0 0 40 39" fill="none" xmlns="http://www.w3.org/2000/svg">
<path d="M0.198486 4.06591C0.198486 1.85677 1.98935 0.0659027 4.19849 0.0659027H35.63C37.8391 0.0659027 39.63 1.85676 39.63 4.0659V34.9341C39.63 37.1432 37.8391 38.9341 35.63 38.9341H4.19848C1.98934 38.9341 0.198486 37.1432 0.198486 34.9341V4.06591Z" fill="#272B34"/>
<path d="M18.6987 19.501L13.9896 19.501M29.1035 18.9665C29.2037 19.0153 29.2881 19.0912 29.3472 19.1857C29.4062 19.2802 29.4375 19.3894 29.4374 19.5008C29.4373 19.6122 29.4059 19.7214 29.3467 19.8158C29.2875 19.9102 29.203 19.986 29.1027 20.0347L11.1657 28.6728C11.0585 28.7244 10.9382 28.7426 10.8205 28.725C10.7028 28.7074 10.593 28.6548 10.5056 28.5741C10.4181 28.4934 10.3569 28.3883 10.3299 28.2723C10.3029 28.1564 10.3114 28.0351 10.3542 27.924L13.5116 19.7137C13.5643 19.5768 13.5643 19.4252 13.5116 19.2883L10.355 11.0772C10.3125 10.9662 10.3043 10.8451 10.3314 10.7295C10.3585 10.6139 10.4196 10.509 10.5069 10.4285C10.5942 10.3479 10.7036 10.2954 10.8211 10.2777C10.9385 10.26 11.0586 10.278 11.1657 10.3292L29.1035 18.9665Z" stroke="white" stroke-width="1.89829" stroke-linecap="round" stroke-linejoin="round"/>
</svg>
