<svg width="26" height="25" viewBox="0 0 26 25" fill="none" xmlns="http://www.w3.org/2000/svg">
<path fill-rule="evenodd" clip-rule="evenodd" d="M7.37988 4.25H17.8799C19.5367 4.25 20.8799 5.59315 20.8799 7.25V17.75C20.8799 19.4069 19.5367 20.75 17.8799 20.75H7.37988C5.72303 20.75 4.37988 19.4069 4.37988 17.75V7.25C4.37988 5.59315 5.72303 4.25 7.37988 4.25ZM2.87988 7.25C2.87988 4.76472 4.8946 2.75 7.37988 2.75H17.8799C20.3652 2.75 22.3799 4.76472 22.3799 7.25V17.75C22.3799 20.2353 20.3652 22.25 17.8799 22.25H7.37988C4.8946 22.25 2.87988 20.2353 2.87988 17.75V7.25ZM9.62988 8C9.21567 8 8.87988 8.33579 8.87988 8.75C8.87988 9.16421 9.21567 9.5 9.62988 9.5H11.8799V16.25C11.8799 16.6642 12.2157 17 12.6299 17C13.0441 17 13.3799 16.6642 13.3799 16.25V9.5H15.6299C16.0441 9.5 16.3799 9.16421 16.3799 8.75C16.3799 8.33579 16.0441 8 15.6299 8H12.6299H9.62988Z" fill="#120A16" fill-opacity="0.8"/>
</svg>
